<svg xmlns="http://www.w3.org/2000/svg" style="display: none;">

    <!-- Иконка Домик (главная) -->
    <symbol id="icon-home" viewBox="0 0 24 24">
        <path d="M12 3L2 9v12h6v-6h8v6h6V9l-10-6z" fill="currentColor"/>
    </symbol>

    <!-- Иконка Вход (ключ) -->
    <symbol id="icon-login" viewBox="0 0 24 24">
        <path d="M15 3h4a2 2 0 0 1 2 2v14a2 2 0 0 1-2 2h-4" fill="none" stroke="currentColor" stroke-width="2"/>
        <polyline points="10 17 15 12 10 7" fill="none" stroke="currentColor" stroke-width="2"/>
        <line x1="15" y1="12" x2="3" y2="12" fill="none" stroke="currentColor" stroke-width="2"/>
    </symbol>

    <!-- Иконка Регистрация -->
    <symbol id="icon-register" viewBox="0 0 24 24">
        <circle cx="12" cy="12" r="10" fill="none" stroke="currentColor" stroke-width="2"/>
        <line x1="12" y1="8" x2="12" y2="16" stroke="currentColor" stroke-width="2"/>
        <line x1="8" y1="12" x2="16" y2="12" stroke="currentColor" stroke-width="2"/>
    </symbol>

    <!-- Иконка Профиль -->
    <symbol id="icon-profile" viewBox="0 0 24 24">
        <circle cx="12" cy="8" r="4" fill="none" stroke="currentColor" stroke-width="2"/>
        <path d="M5 20v-2a7 7 0 0 1 14 0v2" fill="none" stroke="currentColor" stroke-width="2"/>
    </symbol>

    <!-- Иконка Тренировки -->
    <symbol id="icon-workouts" viewBox="0 0 24 24">
        <path d="M6 8L2 12L6 16" fill="none" stroke="currentColor" stroke-width="2"/>
        <path d="M18 8L22 12L18 16" fill="none" stroke="currentColor" stroke-width="2"/>
        <rect x="8" y="5" width="8" height="14" rx="1" fill="none" stroke="currentColor" stroke-width="2"/>
    </symbol>

    <!-- Иконка Блог -->
    <symbol id="icon-blog" viewBox="0 0 24 24">
        <path d="M4 4h16v16H4V4z" fill="none" stroke="currentColor" stroke-width="2"/>
        <line x1="8" y1="8" x2="16" y2="8" stroke="currentColor" stroke-width="2"/>
        <line x1="8" y1="12" x2="16" y2="12" stroke="currentColor" stroke-width="2"/>
        <line x1="8" y1="16" x2="12" y2="16" stroke="currentColor" stroke-width="2"/>
    </symbol>

</svg>
